<svg xmlns="http://www.w3.org/2000/svg" xmlns:xlink="http://www.w3.org/1999/xlink" width="342" zoomAndPan="magnify" viewBox="0 0 256.5 74.999997" height="100" preserveAspectRatio="xMidYMid meet" version="1.0"><defs><g/><clipPath id="69e1f809ea"><path d="M 0 0.0742188 L 60 0.0742188 L 60 74.925781 L 0 74.925781 Z M 0 0.0742188 " clip-rule="nonzero"/></clipPath><clipPath id="7e815f3a31"><path d="M 56.753906 16.394531 L 59.761719 5.234375 L 48.539062 8.226562 L 50.828125 10.5 L 45.722656 15.582031 C 45.191406 14.574219 44.597656 13.613281 43.9375 12.707031 L 40.21875 16.410156 C 40.734375 17.191406 41.199219 18.011719 41.597656 18.871094 L 41.765625 19.519531 L 10.386719 50.753906 L 10.476562 41.652344 L 43.234375 9.046875 L 45.433594 11.234375 L 48.441406 0.0742188 L 37.222656 3.066406 L 39.582031 5.414062 L 38.019531 6.96875 C 34.078125 4.269531 29.339844 2.742188 24.367188 2.742188 C 11.0625 2.742188 0.242188 13.511719 0.242188 26.753906 C 0.242188 32.09375 2.03125 37.285156 5.304688 41.476562 L 5.140625 57.941406 L 31.136719 75.074219 L 31.136719 58.859375 L 44.1875 60.855469 L 44.1875 44.144531 L 53.566406 44.144531 L 48.363281 24.292969 L 44.128906 28.511719 L 46.875 39 L 39.023438 39 L 39.023438 54.863281 L 25.96875 52.859375 L 25.96875 65.5 L 12.078125 56.34375 L 54.484375 14.136719 Z M 24.367188 7.882812 C 27.945312 7.882812 31.359375 8.894531 34.285156 10.683594 L 8.222656 36.625 C 6.398438 33.671875 5.40625 30.257812 5.40625 26.753906 C 5.40625 16.351562 13.914062 7.882812 24.367188 7.882812 Z M 24.367188 7.882812 " clip-rule="nonzero"/></clipPath><radialGradient gradientTransform="matrix(1.002349, 0, 0, 0.997651, 0.240521, 0.0729547)" gradientUnits="userSpaceOnUse" r="81.12913" cx="46.821967" id="eafdd38b6a" cy="1.176006" fx="46.821967" fy="1.176006"><stop stop-opacity="1" stop-color="rgb(9.049988%, 97.19696%, 84.359741%)" offset="0"/><stop stop-opacity="1" stop-color="rgb(9.176636%, 96.94519%, 84.513855%)" offset="0.0078125"/><stop stop-opacity="1" stop-color="rgb(9.329224%, 96.641541%, 84.69696%)" offset="0.0195312"/><stop stop-opacity="1" stop-color="rgb(9.481812%, 96.337891%, 84.881592%)" offset="0.03125"/><stop stop-opacity="1" stop-color="rgb(9.634399%, 96.034241%, 85.064697%)" offset="0.0429688"/><stop stop-opacity="1" stop-color="rgb(9.786987%, 95.730591%, 85.249329%)" offset="0.0546875"/><stop stop-opacity="1" stop-color="rgb(9.938049%, 95.426941%, 85.43396%)" offset="0.0664062"/><stop stop-opacity="1" stop-color="rgb(10.090637%, 95.123291%, 85.617065%)" offset="0.078125"/><stop stop-opacity="1" stop-color="rgb(10.243225%, 94.819641%, 85.801697%)" offset="0.0898438"/><stop stop-opacity="1" stop-color="rgb(10.395813%, 94.515991%, 85.984802%)" offset="0.101562"/><stop stop-opacity="1" stop-color="rgb(10.548401%, 94.212341%, 86.169434%)" offset="0.113281"/><stop stop-opacity="1" stop-color="rgb(10.700989%, 93.908691%, 86.352539%)" offset="0.125"/><stop stop-opacity="1" stop-color="rgb(10.852051%, 93.605042%, 86.53717%)" offset="0.136719"/><stop stop-opacity="1" stop-color="rgb(11.004639%, 93.302917%, 86.721802%)" offset="0.148438"/><stop stop-opacity="1" stop-color="rgb(11.157227%, 92.999268%, 86.904907%)" offset="0.160156"/><stop stop-opacity="1" stop-color="rgb(11.309814%, 92.695618%, 87.089539%)" offset="0.171875"/><stop stop-opacity="1" stop-color="rgb(11.462402%, 92.391968%, 87.272644%)" offset="0.183594"/><stop stop-opacity="1" stop-color="rgb(11.61499%, 92.088318%, 87.457275%)" offset="0.195312"/><stop stop-opacity="1" stop-color="rgb(11.766052%, 91.784668%, 87.641907%)" offset="0.207031"/><stop stop-opacity="1" stop-color="rgb(11.91864%, 91.481018%, 87.825012%)" offset="0.21875"/><stop stop-opacity="1" stop-color="rgb(12.071228%, 91.177368%, 88.009644%)" offset="0.230469"/><stop stop-opacity="1" stop-color="rgb(12.223816%, 90.873718%, 88.192749%)" offset="0.242188"/><stop stop-opacity="1" stop-color="rgb(12.350464%, 90.621948%, 88.346863%)" offset="0.253906"/><stop stop-opacity="1" stop-color="rgb(12.452698%, 90.419006%, 88.468933%)" offset="0.261719"/><stop stop-opacity="1" stop-color="rgb(12.553406%, 90.216064%, 88.592529%)" offset="0.269531"/><stop stop-opacity="1" stop-color="rgb(12.65564%, 90.014648%, 88.7146%)" offset="0.277344"/><stop stop-opacity="1" stop-color="rgb(12.756348%, 89.811707%, 88.83667%)" offset="0.285156"/><stop stop-opacity="1" stop-color="rgb(12.858582%, 89.610291%, 88.960266%)" offset="0.292969"/><stop stop-opacity="1" stop-color="rgb(12.95929%, 89.407349%, 89.082336%)" offset="0.300781"/><stop stop-opacity="1" stop-color="rgb(13.061523%, 89.204407%, 89.205933%)" offset="0.308594"/><stop stop-opacity="1" stop-color="rgb(13.162231%, 89.002991%, 89.328003%)" offset="0.316406"/><stop stop-opacity="1" stop-color="rgb(13.264465%, 88.800049%, 89.450073%)" offset="0.324219"/><stop stop-opacity="1" stop-color="rgb(13.366699%, 88.598633%, 89.573669%)" offset="0.332031"/><stop stop-opacity="1" stop-color="rgb(13.467407%, 88.395691%, 89.69574%)" offset="0.339844"/><stop stop-opacity="1" stop-color="rgb(13.569641%, 88.192749%, 89.81781%)" offset="0.347656"/><stop stop-opacity="1" stop-color="rgb(13.670349%, 87.991333%, 89.941406%)" offset="0.355469"/><stop stop-opacity="1" stop-color="rgb(13.772583%, 87.788391%, 90.063477%)" offset="0.363281"/><stop stop-opacity="1" stop-color="rgb(13.873291%, 87.586975%, 90.187073%)" offset="0.371094"/><stop stop-opacity="1" stop-color="rgb(13.975525%, 87.384033%, 90.309143%)" offset="0.378906"/><stop stop-opacity="1" stop-color="rgb(14.076233%, 87.181091%, 90.431213%)" offset="0.386719"/><stop stop-opacity="1" stop-color="rgb(14.178467%, 86.979675%, 90.55481%)" offset="0.394531"/><stop stop-opacity="1" stop-color="rgb(14.280701%, 86.776733%, 90.67688%)" offset="0.402344"/><stop stop-opacity="1" stop-color="rgb(14.381409%, 86.575317%, 90.800476%)" offset="0.410156"/><stop stop-opacity="1" stop-color="rgb(14.483643%, 86.372375%, 90.922546%)" offset="0.417969"/><stop stop-opacity="1" stop-color="rgb(14.584351%, 86.169434%, 91.044617%)" offset="0.425781"/><stop stop-opacity="1" stop-color="rgb(14.686584%, 85.968018%, 91.168213%)" offset="0.433594"/><stop stop-opacity="1" stop-color="rgb(14.787292%, 85.765076%, 91.290283%)" offset="0.441406"/><stop stop-opacity="1" stop-color="rgb(14.889526%, 85.562134%, 91.412354%)" offset="0.449219"/><stop stop-opacity="1" stop-color="rgb(14.99176%, 85.360718%, 91.53595%)" offset="0.457031"/><stop stop-opacity="1" stop-color="rgb(15.092468%, 85.157776%, 91.65802%)" offset="0.464844"/><stop stop-opacity="1" stop-color="rgb(15.194702%, 84.95636%, 91.781616%)" offset="0.472656"/><stop stop-opacity="1" stop-color="rgb(15.29541%, 84.753418%, 91.903687%)" offset="0.480469"/><stop stop-opacity="1" stop-color="rgb(15.397644%, 84.550476%, 92.025757%)" offset="0.488281"/><stop stop-opacity="1" stop-color="rgb(15.498352%, 84.34906%, 92.149353%)" offset="0.496094"/><stop stop-opacity="1" stop-color="rgb(15.626526%, 84.095764%, 92.301941%)" offset="0.503906"/><stop stop-opacity="1" stop-color="rgb(15.779114%, 83.792114%, 92.486572%)" offset="0.515625"/><stop stop-opacity="1" stop-color="rgb(15.930176%, 83.488464%, 92.669678%)" offset="0.527344"/><stop stop-opacity="1" stop-color="rgb(16.082764%, 83.184814%, 92.854309%)" offset="0.539062"/><stop stop-opacity="1" stop-color="rgb(16.235352%, 82.881165%, 93.037415%)" offset="0.550781"/><stop stop-opacity="1" stop-color="rgb(16.387939%, 82.577515%, 93.222046%)" offset="0.5625"/><stop stop-opacity="1" stop-color="rgb(16.540527%, 82.273865%, 93.406677%)" offset="0.574219"/><stop stop-opacity="1" stop-color="rgb(16.693115%, 81.971741%, 93.589783%)" offset="0.585938"/><stop stop-opacity="1" stop-color="rgb(16.844177%, 81.668091%, 93.774414%)" offset="0.597656"/><stop stop-opacity="1" stop-color="rgb(16.996765%, 81.364441%, 93.95752%)" offset="0.609375"/><stop stop-opacity="1" stop-color="rgb(17.149353%, 81.060791%, 94.142151%)" offset="0.621094"/><stop stop-opacity="1" stop-color="rgb(17.276001%, 80.807495%, 94.294739%)" offset="0.632812"/><stop stop-opacity="1" stop-color="rgb(17.378235%, 80.606079%, 94.418335%)" offset="0.640625"/><stop stop-opacity="1" stop-color="rgb(17.478943%, 80.403137%, 94.540405%)" offset="0.648438"/><stop stop-opacity="1" stop-color="rgb(17.581177%, 80.200195%, 94.664001%)" offset="0.65625"/><stop stop-opacity="1" stop-color="rgb(17.681885%, 79.998779%, 94.786072%)" offset="0.664062"/><stop stop-opacity="1" stop-color="rgb(17.784119%, 79.795837%, 94.908142%)" offset="0.671875"/><stop stop-opacity="1" stop-color="rgb(17.884827%, 79.594421%, 95.031738%)" offset="0.679688"/><stop stop-opacity="1" stop-color="rgb(17.987061%, 79.391479%, 95.153809%)" offset="0.6875"/><stop stop-opacity="1" stop-color="rgb(18.089294%, 79.188538%, 95.277405%)" offset="0.695312"/><stop stop-opacity="1" stop-color="rgb(18.190002%, 78.987122%, 95.399475%)" offset="0.703125"/><stop stop-opacity="1" stop-color="rgb(18.292236%, 78.78418%, 95.521545%)" offset="0.710938"/><stop stop-opacity="1" stop-color="rgb(18.392944%, 78.581238%, 95.645142%)" offset="0.71875"/><stop stop-opacity="1" stop-color="rgb(18.495178%, 78.379822%, 95.767212%)" offset="0.726562"/><stop stop-opacity="1" stop-color="rgb(18.595886%, 78.17688%, 95.889282%)" offset="0.734375"/><stop stop-opacity="1" stop-color="rgb(18.69812%, 77.975464%, 96.012878%)" offset="0.742188"/><stop stop-opacity="1" stop-color="rgb(18.800354%, 77.772522%, 96.134949%)" offset="0.75"/><stop stop-opacity="1" stop-color="rgb(18.927002%, 77.519226%, 96.289062%)" offset="0.757812"/><stop stop-opacity="1" stop-color="rgb(19.07959%, 77.215576%, 96.472168%)" offset="0.769531"/><stop stop-opacity="1" stop-color="rgb(19.232178%, 76.911926%, 96.656799%)" offset="0.78125"/><stop stop-opacity="1" stop-color="rgb(19.38324%, 76.608276%, 96.839905%)" offset="0.792969"/><stop stop-opacity="1" stop-color="rgb(19.535828%, 76.304626%, 97.024536%)" offset="0.804688"/><stop stop-opacity="1" stop-color="rgb(19.662476%, 76.052856%, 97.177124%)" offset="0.816406"/><stop stop-opacity="1" stop-color="rgb(19.764709%, 75.849915%, 97.30072%)" offset="0.824219"/><stop stop-opacity="1" stop-color="rgb(19.865417%, 75.648499%, 97.422791%)" offset="0.832031"/><stop stop-opacity="1" stop-color="rgb(19.967651%, 75.445557%, 97.546387%)" offset="0.839844"/><stop stop-opacity="1" stop-color="rgb(20.069885%, 75.242615%, 97.668457%)" offset="0.847656"/><stop stop-opacity="1" stop-color="rgb(20.170593%, 75.041199%, 97.790527%)" offset="0.855469"/><stop stop-opacity="1" stop-color="rgb(20.272827%, 74.838257%, 97.914124%)" offset="0.863281"/><stop stop-opacity="1" stop-color="rgb(20.373535%, 74.636841%, 98.036194%)" offset="0.871094"/><stop stop-opacity="1" stop-color="rgb(20.501709%, 74.383545%, 98.190308%)" offset="0.878906"/><stop stop-opacity="1" stop-color="rgb(20.652771%, 74.079895%, 98.373413%)" offset="0.890625"/><stop stop-opacity="1" stop-color="rgb(20.805359%, 73.776245%, 98.558044%)" offset="0.902344"/><stop stop-opacity="1" stop-color="rgb(20.932007%, 73.522949%, 98.710632%)" offset="0.914062"/><stop stop-opacity="1" stop-color="rgb(21.034241%, 73.321533%, 98.834229%)" offset="0.921875"/><stop stop-opacity="1" stop-color="rgb(21.134949%, 73.118591%, 98.956299%)" offset="0.929688"/><stop stop-opacity="1" stop-color="rgb(21.237183%, 72.915649%, 99.078369%)" offset="0.9375"/><stop stop-opacity="1" stop-color="rgb(21.363831%, 72.663879%, 99.232483%)" offset="0.945312"/><stop stop-opacity="1" stop-color="rgb(21.490479%, 72.410583%, 99.385071%)" offset="0.957031"/><stop stop-opacity="1" stop-color="rgb(21.592712%, 72.207642%, 99.508667%)" offset="0.964844"/><stop stop-opacity="1" stop-color="rgb(21.71936%, 71.954346%, 99.661255%)" offset="0.972656"/><stop stop-opacity="1" stop-color="rgb(21.846008%, 71.702576%, 99.815369%)" offset="0.984375"/><stop stop-opacity="1" stop-color="rgb(21.948242%, 71.499634%, 99.937439%)" offset="0.992188"/><stop stop-opacity="1" stop-color="rgb(21.998596%, 71.398926%, 100%)" offset="1"/></radialGradient></defs><g clip-path="url(#69e1f809ea)"><g clip-path="url(#7e815f3a31)"><path fill="url(#eafdd38b6a)" d="M 0.242188 0.0742188 L 0.242188 74.925781 L 59.761719 74.925781 L 59.761719 0.0742188 Z M 0.242188 0.0742188 " fill-rule="nonzero"/></g></g><g fill="#ffffff" fill-opacity="1"><g transform="translate(82.658204, 36.049186)"><g><path d="M 18.78125 -20.46875 L 18.78125 0 L 9.953125 0 L 9.953125 -20.46875 L 0.921875 -20.46875 L 0.921875 -27.5 L 27.78125 -27.5 L 27.78125 -20.46875 Z M 18.78125 -20.46875 "/></g></g></g><g fill="#ffffff" fill-opacity="1"><g transform="translate(111.519198, 36.049186)"><g><path d="M 21.5 0 L 21.5 -10.4375 L 11.796875 -10.4375 L 11.796875 0 L 2.953125 0 L 2.953125 -27.5 L 11.796875 -27.5 L 11.796875 -17.46875 L 21.5 -17.46875 L 21.5 -27.5 L 30.34375 -27.5 L 30.34375 0 Z M 21.5 0 "/></g></g></g><g fill="#ffffff" fill-opacity="1"><g transform="translate(144.817264, 36.049186)"><g><path d="M 3.359375 0 L 3.359375 -27.5 L 12.1875 -27.5 L 12.1875 0 Z M 3.359375 0 "/></g></g></g><g fill="#ffffff" fill-opacity="1"><g transform="translate(160.367026, 36.049186)"><g><path d="M 22.625 0 L 11.078125 -13.34375 L 11.078125 0 L 2.953125 0 L 2.953125 -27.5 L 10.671875 -27.5 L 22.21875 -13.953125 L 22.21875 -27.5 L 30.34375 -27.5 L 30.34375 0 Z M 22.625 0 "/></g></g></g><g fill="#ffffff" fill-opacity="1"><g transform="translate(193.665091, 36.049186)"><g><path d="M 21.578125 -27.5 L 32.53125 -27.5 L 22.65625 -16.1875 L 32.734375 0 L 22.296875 0 L 16.59375 -10.078125 L 11.796875 -6.15625 L 11.796875 0 L 2.953125 0 L 2.953125 -27.5 L 11.796875 -27.5 L 11.796875 -15.75 Z M 21.578125 -27.5 "/></g></g></g><g fill="#17f8d7" fill-opacity="1"><g transform="translate(73.230733, 69.425501)"><g><path d="M 17.890625 -6.9375 C 17.890625 -4.675781 17.078125 -2.894531 15.453125 -1.59375 C 13.828125 -0.300781 11.566406 0.34375 8.671875 0.34375 C 6.015625 0.34375 3.660156 -0.15625 1.609375 -1.15625 L 1.609375 -6.078125 C 3.296875 -5.328125 4.722656 -4.796875 5.890625 -4.484375 C 7.054688 -4.179688 8.125 -4.03125 9.09375 -4.03125 C 10.25 -4.03125 11.132812 -4.25 11.75 -4.6875 C 12.375 -5.132812 12.6875 -5.796875 12.6875 -6.671875 C 12.6875 -7.160156 12.550781 -7.597656 12.28125 -7.984375 C 12.007812 -8.367188 11.609375 -8.738281 11.078125 -9.09375 C 10.546875 -9.445312 9.46875 -10.007812 7.84375 -10.78125 C 6.3125 -11.5 5.164062 -12.1875 4.40625 -12.84375 C 3.644531 -13.507812 3.035156 -14.28125 2.578125 -15.15625 C 2.117188 -16.03125 1.890625 -17.054688 1.890625 -18.234375 C 1.890625 -20.441406 2.640625 -22.175781 4.140625 -23.4375 C 5.640625 -24.695312 7.710938 -25.328125 10.359375 -25.328125 C 11.648438 -25.328125 12.882812 -25.171875 14.0625 -24.859375 C 15.238281 -24.554688 16.472656 -24.128906 17.765625 -23.578125 L 16.0625 -19.453125 C 14.726562 -20.003906 13.625 -20.382812 12.75 -20.59375 C 11.875 -20.8125 11.019531 -20.921875 10.1875 -20.921875 C 9.175781 -20.921875 8.40625 -20.6875 7.875 -20.21875 C 7.34375 -19.757812 7.078125 -19.148438 7.078125 -18.390625 C 7.078125 -17.929688 7.179688 -17.523438 7.390625 -17.171875 C 7.609375 -16.828125 7.953125 -16.492188 8.421875 -16.171875 C 8.898438 -15.847656 10.019531 -15.265625 11.78125 -14.421875 C 14.113281 -13.304688 15.710938 -12.1875 16.578125 -11.0625 C 17.453125 -9.9375 17.890625 -8.5625 17.890625 -6.9375 Z M 17.890625 -6.9375 "/></g></g></g><g fill="#17f8d7" fill-opacity="1"><g transform="translate(106.484061, 69.425501)"><g><path d="M 8.4375 -13.21875 L 10.1875 -13.21875 C 11.8125 -13.21875 13.023438 -13.539062 13.828125 -14.1875 C 14.640625 -14.832031 15.046875 -15.769531 15.046875 -17 C 15.046875 -18.238281 14.707031 -19.15625 14.03125 -19.75 C 13.351562 -20.34375 12.289062 -20.640625 10.84375 -20.640625 L 8.4375 -20.640625 Z M 20.390625 -17.1875 C 20.390625 -14.5 19.550781 -12.441406 17.875 -11.015625 C 16.195312 -9.585938 13.804688 -8.875 10.703125 -8.875 L 8.4375 -8.875 L 8.4375 0 L 3.140625 0 L 3.140625 -24.96875 L 11.125 -24.96875 C 14.15625 -24.96875 16.457031 -24.316406 18.03125 -23.015625 C 19.601562 -21.710938 20.390625 -19.769531 20.390625 -17.1875 Z M 20.390625 -17.1875 "/></g></g></g><g fill="#17f8d7" fill-opacity="1"><g transform="translate(142.435174, 69.425501)"><g><path d="M 18.4375 0 L 16.625 -5.9375 L 7.515625 -5.9375 L 5.703125 0 L 0 0 L 8.8125 -25.078125 L 15.28125 -25.078125 L 24.140625 0 Z M 15.359375 -10.390625 C 13.679688 -15.773438 12.738281 -18.816406 12.53125 -19.515625 C 12.320312 -20.222656 12.171875 -20.785156 12.078125 -21.203125 C 11.703125 -19.742188 10.625 -16.140625 8.84375 -10.390625 Z M 15.359375 -10.390625 "/></g></g></g><g fill="#17f8d7" fill-opacity="1"><g transform="translate(180.554764, 69.425501)"><g><path d="M 13.75 -20.921875 C 11.757812 -20.921875 10.21875 -20.171875 9.125 -18.671875 C 8.03125 -17.179688 7.484375 -15.097656 7.484375 -12.421875 C 7.484375 -6.847656 9.570312 -4.0625 13.75 -4.0625 C 15.5 -4.0625 17.625 -4.5 20.125 -5.375 L 20.125 -0.9375 C 18.070312 -0.0820312 15.78125 0.34375 13.25 0.34375 C 9.625 0.34375 6.847656 -0.753906 4.921875 -2.953125 C 2.992188 -5.160156 2.03125 -8.328125 2.03125 -12.453125 C 2.03125 -15.046875 2.503906 -17.316406 3.453125 -19.265625 C 4.398438 -21.222656 5.757812 -22.722656 7.53125 -23.765625 C 9.300781 -24.804688 11.375 -25.328125 13.75 -25.328125 C 16.175781 -25.328125 18.613281 -24.742188 21.0625 -23.578125 L 19.359375 -19.265625 C 18.421875 -19.710938 17.476562 -20.097656 16.53125 -20.421875 C 15.59375 -20.753906 14.664062 -20.921875 13.75 -20.921875 Z M 13.75 -20.921875 "/></g></g></g><g fill="#17f8d7" fill-opacity="1"><g transform="translate(216.830288, 69.425501)"><g><path d="M 17.53125 0 L 3.140625 0 L 3.140625 -24.96875 L 17.53125 -24.96875 L 17.53125 -20.640625 L 8.4375 -20.640625 L 8.4375 -15.15625 L 16.890625 -15.15625 L 16.890625 -10.8125 L 8.4375 -10.8125 L 8.4375 -4.375 L 17.53125 -4.375 Z M 17.53125 0 "/></g></g></g></svg>